<?xml version="1.0" encoding="UTF-8"?>
<!DOCTYPE svg PUBLIC "-//W3C//DTD SVG 1.1//EN" "http://www.w3.org/Graphics/SVG/1.1/DTD/svg11.dtd">
<!-- Creator: CorelDRAW 2018 (64-Bit Evaluation Version) -->
<svg xmlns="http://www.w3.org/2000/svg" xml:space="preserve" width="12.7901mm" height="12.7902mm" version="1.1" style="shape-rendering:geometricPrecision; text-rendering:geometricPrecision; image-rendering:optimizeQuality; fill-rule:evenodd; clip-rule:evenodd"
viewBox="0 0 35.56 35.56"
 xmlns:xlink="http://www.w3.org/1999/xlink">
 <defs>
  <style type="text/css">
   <![CDATA[
    .fil4 {fill:none}
    .fil1 {fill:#FFED00}
    .fil0 {fill:#E5097F}
    .fil2 {fill:#00A0E3}
    .fil3 {fill:#1C1B17}
   ]]>
  </style>
   <clipPath id="id0">
    <path d="M17.78 0c9.82,0 17.78,7.96 17.78,17.78 0,9.82 -7.96,17.78 -17.78,17.78 -9.82,0 -17.78,-7.96 -17.78,-17.78 0,-9.82 7.96,-17.78 17.78,-17.78z"/>
   </clipPath>
 </defs>
 <g id="Layer_x0020_1">
  <metadata id="CorelCorpID_0Corel-Layer"/>
  <g>
  </g>
  <g style="clip-path:url(#id0)">
   <g>
    <g id="_2298557569280">
     <path class="fil0" d="M17.77 17.78l-12.57 -12.57c6.94,-6.94 18.2,-6.94 25.14,0l-12.57 12.57z"/>
     <path class="fil1" d="M17.78 17.78l12.57 12.57c6.94,-6.94 6.94,-18.2 0,-25.14l-12.57 12.57z"/>
     <path class="fil2" d="M17.78 17.78l-12.57 -12.57c-6.94,6.94 -6.94,18.2 0,25.14l12.57 -12.57z"/>
     <path class="fil3" d="M17.78 17.78l12.57 12.57c-6.94,6.94 -18.2,6.94 -25.14,0l12.57 -12.57z"/>
    </g>
   </g>
  </g>
  <path class="fil4" d="M17.78 0c9.82,0 17.78,7.96 17.78,17.78 0,9.82 -7.96,17.78 -17.78,17.78 -9.82,0 -17.78,-7.96 -17.78,-17.78 0,-9.82 7.96,-17.78 17.78,-17.78z"/>
 </g>
</svg>
